<?xml version="1.0" standalone="no"?>
<!DOCTYPE svg PUBLIC "-//W3C//DTD SVG 20010904//EN"
 "http://www.w3.org/TR/2001/REC-SVG-20010904/DTD/svg10.dtd">
<svg version="1.0" xmlns="http://www.w3.org/2000/svg"
 width="640.000000pt" height="640.000000pt" viewBox="0 0 640.000000 640.000000"
 preserveAspectRatio="xMidYMid meet">

<g transform="translate(0.000000,640.000000) scale(0.100000,-0.100000)"
fill="#000000" stroke="none">
<path d="M0 3200 l0 -3200 3200 0 3200 0 0 3200 0 3200 -3200 0 -3200 0 0
-3200z m2095 849 c33 -7 66 -13 73 -15 18 -5 15 -49 -8 -89 -11 -20 -20 -48
-20 -64 0 -15 -3 -31 -7 -35 -12 -11 -33 -80 -33 -106 0 -15 -6 -32 -12 -39
-10 -9 -13 -56 -11 -174 2 -201 27 -393 60 -467 9 -19 19 -48 22 -64 10 -47
26 -40 39 16 22 92 43 171 62 228 46 138 61 264 63 535 2 186 6 192 84 128
100 -81 118 -107 193 -278 5 -11 18 -49 30 -85 11 -36 25 -73 30 -82 6 -10 10
-29 10 -42 0 -14 5 -28 10 -31 16 -10 12 -143 -6 -181 -26 -55 -192 -207 -249
-228 -28 -10 -66 -25 -85 -34 -68 -33 -341 -26 -400 9 -181 108 -168 99 -239
170 -59 59 -104 139 -141 251 -31 95 -32 232 -2 309 21 53 88 165 115 194 7 7
37 45 67 84 35 46 64 74 80 77 14 3 36 11 50 19 27 16 118 13 225 -6z m2350
-30 c86 -27 106 -37 142 -74 78 -81 128 -182 178 -359 24 -82 9 -153 -66 -311
-51 -110 -170 -203 -337 -265 -55 -21 -177 -30 -201 -16 -17 11 -6 111 19 171
20 47 24 92 27 310 4 222 -1 275 -28 327 -5 10 -9 29 -9 43 0 14 -4 25 -10 25
-5 0 -10 9 -10 19 0 11 -9 40 -20 66 -40 93 -24 106 120 99 68 -3 124 -13 195
-35z m-454 -97 c3 -42 1 -85 -3 -95 -16 -32 -12 -403 5 -492 26 -134 33 -155
106 -302 27 -55 11 -60 -131 -40 -119 17 -123 19 -217 78 -63 39 -116 81 -154
123 l-57 65 0 85 c0 47 5 88 10 91 6 3 10 21 10 39 0 18 9 51 20 74 11 22 20
45 20 50 0 4 9 27 20 50 11 22 20 48 20 56 0 9 11 40 25 70 14 30 25 59 25 64
0 11 43 48 129 112 63 46 138 74 156 58 6 -5 13 -44 16 -86z m1045 -1357 c-4
-14 -2 -25 4 -25 5 0 10 -11 10 -25 0 -17 -5 -25 -18 -25 -12 0 -25 -16 -40
-50 -24 -54 -45 -70 -71 -53 -45 28 -9 120 67 171 26 17 49 31 51 32 2 0 0
-11 -3 -25z m-3863 -74 c21 -27 51 -64 67 -83 16 -18 30 -39 30 -45 0 -9 11
-6 33 7 17 11 39 20 47 20 18 0 158 -66 180 -85 10 -8 57 -14 133 -17 101 -4
121 -7 147 -26 29 -22 29 -22 62 -3 68 39 161 35 256 -12 17 -8 25 -8 34 1 15
15 169 16 216 3 18 -6 49 -24 69 -42 l36 -31 11 33 c26 78 143 104 241 54 l49
-24 22 20 c28 26 166 61 266 66 67 4 81 2 104 -16 l26 -20 41 20 c37 19 45 20
99 9 32 -7 61 -17 64 -21 3 -5 14 -9 25 -9 21 0 60 -22 96 -53 21 -19 22 -18
43 3 19 19 28 20 93 15 66 -6 75 -9 105 -42 17 -20 33 -43 33 -52 5 -60 4 -80
-4 -111 -12 -45 -39 -70 -83 -77 -19 -3 -33 -8 -32 -12 13 -24 28 -64 44 -114
21 -65 16 -83 -32 -107 -28 -14 -125 -17 -145 -4 -13 8 -11 109 3 141 17 36
77 103 95 103 18 0 17 4 -17 40 -17 18 -30 39 -30 47 0 25 -25 8 -30 -21 -5
-28 -85 -116 -106 -116 -6 0 -17 -6 -23 -14 -10 -12 -8 -17 9 -26 27 -14 60
-68 60 -98 0 -38 -24 -53 -98 -59 -88 -7 -97 2 -89 93 3 47 10 69 23 80 18 13
18 15 -11 36 -53 40 -72 67 -105 148 -36 91 -56 115 -64 78 -3 -12 -7 -41 -9
-63 -5 -46 -35 -129 -60 -168 -21 -32 -21 -37 -2 -37 9 0 27 -11 40 -25 21
-20 25 -34 25 -84 0 -33 -4 -62 -8 -65 -5 -3 -41 -14 -80 -24 -50 -14 -74 -16
-79 -9 -14 22 -12 112 3 134 21 33 17 39 -22 35 -27 -3 -39 0 -46 12 -5 9 -18
16 -28 16 -24 0 -25 -6 -5 -26 41 -41 22 -167 -30 -193 -46 -22 -154 12 -174
56 -12 26 -6 115 11 170 12 40 61 83 94 83 27 0 29 7 9 33 -9 12 -12 34 -8 64
6 57 -17 56 -29 -2 -12 -56 -72 -111 -131 -120 -49 -8 -48 -3 -17 -65 7 -14 7
-27 0 -40 -5 -10 -10 -31 -10 -47 -1 -56 -72 -103 -157 -103 -64 0 -87 15 -79
51 6 33 5 34 -32 15 -23 -12 -32 -12 -52 -1 -22 12 -27 11 -47 -11 -35 -37
-114 -30 -163 16 -35 33 -38 63 -10 87 11 10 20 22 20 28 1 13 67 55 87 55 10
0 13 5 8 18 -4 9 -10 48 -13 86 -5 73 -15 71 -26 -7 -6 -40 -16 -58 -56 -99
-49 -51 -61 -55 -112 -33 -15 6 -17 0 -15 -51 2 -70 -10 -77 -79 -42 -47 23
-64 48 -64 94 0 21 -3 24 -21 19 -32 -10 -87 -17 -149 -18 -91 -1 -175 71
-103 89 14 4 39 2 55 -4 16 -6 28 -6 28 -1 0 5 -4 9 -10 9 -5 0 -12 12 -16 28
-16 72 -23 79 -79 74 -52 -4 -52 -4 -91 44 -21 27 -58 68 -81 93 -24 24 -43
48 -43 52 0 5 -4 9 -10 9 -5 0 -10 -13 -10 -30 0 -32 -52 -100 -76 -100 -8 0
-14 -4 -14 -10 0 -5 -11 -10 -25 -10 -29 0 -48 30 -39 64 4 16 0 34 -10 48 -9
12 -16 35 -16 50 0 14 -4 38 -10 53 -11 30 -16 148 -6 164 15 23 43 9 79 -38z
m3689 -38 c5 -39 -19 -133 -34 -133 -4 0 -8 -8 -8 -17 0 -10 -9 -29 -20 -43
-11 -14 -20 -30 -20 -37 0 -26 -52 -53 -100 -53 -54 0 -59 7 -61 73 l-1 42 -8
-40 c-5 -22 -20 -74 -34 -114 -14 -41 -23 -77 -21 -80 3 -2 21 14 41 37 38 45
58 50 113 31 26 -9 31 -16 31 -44 0 -48 -79 -125 -155 -150 -70 -24 -89 -15
-93 44 -3 34 -8 44 -29 52 -14 5 -28 8 -30 5 -4 -4 -6 -32 -2 -56 7 -45 -2
-91 -18 -97 -10 -3 -26 -13 -36 -22 -10 -8 -38 -16 -61 -17 -24 -1 -55 -10
-70 -19 -15 -10 -47 -22 -73 -26 -59 -11 -89 6 -99 57 -10 53 14 145 44 171
23 19 24 25 16 64 -12 56 -27 56 -36 -1 -17 -103 -21 -120 -28 -120 -4 0 -10
-23 -14 -50 -4 -30 -15 -59 -26 -70 -21 -21 -70 -28 -70 -10 0 6 -4 10 -10 10
-5 0 -10 -17 -10 -38 0 -35 -3 -38 -40 -50 -22 -6 -57 -12 -79 -12 -36 0 -39
2 -45 33 -3 18 1 58 9 90 8 32 15 69 15 82 0 25 26 46 48 38 15 -6 32 37 22
57 -4 8 -12 26 -18 40 -58 143 -60 165 -15 176 43 11 176 -5 203 -25 14 -9 33
-20 43 -24 9 -3 17 -13 17 -20 0 -11 11 -9 47 9 25 13 59 24 74 24 14 0 40 7
55 15 16 8 44 15 62 15 20 0 35 6 39 15 3 9 22 24 42 34 20 11 50 31 66 45 38
33 99 36 117 6 17 -26 26 -25 30 2 3 24 52 62 138 108 75 40 87 39 92 -7z"/>
<path d="M2476 2098 c-3 -7 -6 -37 -9 -65 l-4 -53 42 0 42 0 -23 48 c-13 26
-24 52 -24 59 0 18 -19 26 -24 11z"/>
<path d="M1850 2016 c0 -18 9 -29 32 -40 17 -9 32 -16 34 -16 1 0 -7 18 -19
40 -25 45 -47 52 -47 16z"/>
<path d="M2421 1912 c-7 -13 -11 -28 -8 -35 2 -7 9 -2 16 11 7 13 11 28 8 35
-2 7 -9 2 -16 -11z"/>
<path d="M2387 1847 c-11 -29 -9 -53 4 -40 6 6 9 21 7 34 -3 21 -4 22 -11 6z"/>
<path d="M4342 2088 c-19 -19 -14 -30 11 -26 12 2 22 9 22 17 0 19 -18 24 -33
9z"/>
<path d="M4267 1942 c-29 -18 -33 -32 -17 -63 19 -35 38 -22 42 29 3 26 4 48
4 49 -1 1 -14 -6 -29 -15z"/>
</g>
</svg>
